 <svg  version="1.0" xmlns="http://www.w3.org/2000/svg"  width="225.000000pt" height="225.000000pt" viewBox="0 0 225.000000 225.000000"  preserveAspectRatio="xMidYMid meet">  <g transform="translate(0.000000,225.000000) scale(0.050000,-0.050000)" fill="#757575" stroke="none"> <path d="M2100 4478 c-1192 -97 -1655 -1640 -726 -2418 180 -151 520 -300 685 -300 41 0 41 -7 41 -820 l0 -820 -67 0 c-39 0 -80 -15 -100 -37 -70 -77 -48 -83 317 -83 280 0 350 5 350 27 0 45 -70 93 -137 93 l-63 0 0 817 0 818 105 14 c614 81 1116 689 1115 1349 -2 837 -664 1429 -1520 1360z m514 -278 c899 -310 1045 -1522 247 -2038 -750 -485 -1744 61 -1744 958 0 775 771 1331 1497 1080z m-304 -2422 c0 -32 -103 -45 -121 -16 -7 11 -2 32 11 48 28 33 110 10 110 -32z m48 -1653 c5 -3 -43 -5 -106 -5 l-114 0 56 49 56 48 50 -43 c28 -24 54 -46 58 -49z"/> <path d="M1633 3819 l-53 -42 0 -414 c0 -269 -8 -423 -21 -436 -18 -18 -29 -239 -21 -382 1 -14 24 -25 51 -25 40 0 50 -11 55 -65 l6 -65 135 -6 135 -6 0 71 0 71 330 0 330 0 0 -71 0 -71 135 6 135 6 6 65 c5 54 15 65 55 65 27 0 50 11 51 25 8 143 -3 364 -21 382 -13 13 -21 167 -21 436 l0 414 -53 42 c-81 64 -1153 64 -1234 0z m557 -429 l0 -280 -240 0 -240 0 -6 259 c-7 340 -29 313 251 307 l235 -6 0 -280z m600 0 l0 -280 -240 0 -240 0 -6 259 c-7 340 -29 313 251 307 l235 -6 0 -280z m-250 -402 c377 -27 259 -45 -290 -45 -397 1 -537 7 -480 20 111 26 426 55 510 46 39 -4 156 -14 260 -21z m-711 -175 c78 -57 18 -213 -82 -213 -26 0 -65 18 -87 40 -109 109 43 265 169 173z m1020 -17 c42 -60 39 -108 -9 -156 -80 -80 -205 -23 -205 93 0 104 153 149 214 63z m-421 12 c24 -9 27 -21 11 -50 -23 -43 -364 -58 -390 -17 -42 68 245 119 379 67z"/> </g> </svg> 